<?xml version="1.0" ?><!DOCTYPE svg  PUBLIC '-//W3C//DTD SVG 1.1//EN'  'http://www.w3.org/Graphics/SVG/1.1/DTD/svg11.dtd'><svg height="512px" style="shape-rendering:geometricPrecision; text-rendering:geometricPrecision; image-rendering:optimizeQuality; fill-rule:evenodd; clip-rule:evenodd" version="1.1" viewBox="0 0 512 512" width="512px" xml:space="preserve" xmlns="http://www.w3.org/2000/svg" xmlns:xlink="http://www.w3.org/1999/xlink" xmlns:xodm="http://www.corel.com/coreldraw/odm/2003"><defs><style type="text/css">
   <![CDATA[
    .fil1 {fill:white}
    .fil0 {fill:url(#id0)}
   ]]>
  </style><linearGradient gradientUnits="userSpaceOnUse" id="id0" x1="67.83" x2="474.19" y1="82.42" y2="389.98"><stop offset="0" style="stop-opacity:1; stop-color:#3B5F9E"/><stop offset="1" style="stop-opacity:1; stop-color:#178CC8"/></linearGradient></defs><g id="Layer_x0020_1"><g id="_1639424401936"><path class="fil0" d="M256 0c141.39,0 256,114.61 256,256 0,141.39 -114.61,256 -256,256 -141.39,0 -256,-114.61 -256,-256 0,-141.39 114.61,-256 256,-256z"/><path class="fil1" d="M219.17 394.15c0,1.97 1.6,3.57 3.57,3.57l50.9 0c1.97,0 3.56,-1.6 3.56,-3.57l0 -139.27 36.9 0c1.85,0 3.4,-1.42 3.55,-3.27l3.55 -41.96c0.18,-2.08 -1.46,-3.87 -3.55,-3.87l-40.45 0 0 -29.77c0,-6.98 5.66,-12.63 12.64,-12.63l28.43 0c1.98,0 3.57,-1.6 3.57,-3.57l0 -41.97c0,-1.97 -1.59,-3.57 -3.57,-3.57l-48.04 0c-28.2,0 -51.06,22.86 -51.06,51.05l0 40.46 -25.44 0c-1.97,0 -3.57,1.6 -3.57,3.57l0 41.96c0,1.98 1.6,3.57 3.57,3.57l25.44 0 0 139.27z"/></g></g></svg>